# xmcd
#
# Track frame offsets: 
#        150
#        12563
#        24980
#        37938
#        49760
#        61313
#        72980
#        85088
#        96820
#        109063
#        121655
#        133430
#        145780
#        158143
#        170960
#        184458
#        196588
#        207983
#        220788
#        233590
#        245263
#        256898
#        269088
#
# Disc length: 3760 seconds
#
# Revision: 4
# Processed by: cddbd v1.5.2PL0 Copyright (c) Steve Scherf et al.
# Submitted via: ExactAudioCopy v1.1
#
DISCID=4a0eae17
DTITLE=Brownie McGhee - The Complete Brownie McGhee (Roots N' Blues) -
DTITLE=Disc 1
DYEAR=1994
DGENRE=Blues
TTITLE0=Picking My Tomatoes (mono)
TTITLE1=Me And My Dog Blues (mono)
TTITLE2=Born For Bad Luck (mono)
TTITLE3=I'm Callin' Daisy (mono)
TTITLE4=Step It Up And Go (mono)
TTITLE5=My Barkin' Bulldog Blues (mono)
TTITLE6=Let Me Tell You 'Bout My Baby (mono)
TTITLE7=Prison Woman Blues (mono)
TTITLE8=Back Door Stranger (mono)
TTITLE9=Be Good To Me (mono)
TTITLE10=Not Guilty Blues (mono)
TTITLE11=Coal Miner Blues (mono)
TTITLE12=Step It And Go No. 2 (mono)
TTITLE13=Money Spending Woman (mono)
TTITLE14=Death Of Blind Boy Fuller (take 1) (mono)
TTITLE15=Death Of Blind Boy Fuller (take 2) (mono)
TTITLE16=Got To Find My Little Woman (mono)
TTITLE17=I'm A Black Woman's Man (take 1) (mono)
TTITLE18=I'm A Black Womans' Man (take 2) (mono)
TTITLE19=Dealing With The Devil (mono)
TTITLE20=Double Trouble (take 1) (mono)
TTITLE21=Double Trouble (take 2) (mono)
TTITLE22=Woman, I'm Done (mono)
EXTD=
EXTT0=
EXTT1=
EXTT2=
EXTT3=
EXTT4=
EXTT5=
EXTT6=
EXTT7=
EXTT8=
EXTT9=
EXTT10=
EXTT11=
EXTT12=
EXTT13=
EXTT14=
EXTT15=
EXTT16=
EXTT17=
EXTT18=
EXTT19=
EXTT20=
EXTT21=
EXTT22=
PLAYORDER=
